<?xml version="1.0" encoding="iso-8859-1"?>
<!-- Generator: Adobe Illustrator 19.0.0, SVG Export Plug-In . SVG Version: 6.00 Build 0)  -->
<svg xmlns="http://www.w3.org/2000/svg" xmlns:xlink="http://www.w3.org/1999/xlink" version="1.1" id="Layer_1" x="0px" y="0px" viewBox="0 0 512 512" style="enable-background:new 0 0 512 512;" xml:space="preserve" width="512" height="512">
<g>
	
		<rect x="42.972" y="370.393" transform="matrix(-0.7071 -0.7071 0.7071 -0.7071 -140.5179 712.5828)" width="68.7" height="30.002"/>
	<path d="M435.845,153.23l11.243-23.547l-80.398-80.398l-281.836,280l48.578,48.578l10.605-10.605   c5.942-5.942,15.487-5.728,21.215,0l20.577,20.577C291.682,345.195,385.357,260.142,435.845,153.23z M366.689,134.138   l21.215,21.213l-21.215,21.213l-21.213-21.213L366.689,134.138z"/>
	<rect x="0.546" y="412.82" transform="matrix(-0.7071 -0.7071 0.7071 -0.7071 -242.9444 755.0093)" width="68.7" height="29.999"/>
	<path d="M462.999,165.958c-51.76,109.883-146.71,198.329-254.261,244.787l42.638,42.638l9.545-4.457   c104.581-48.153,195.288-136.174,244.503-240.543l6.575-13.79l-42.426-42.426L462.999,165.958z"/>
</g>















</svg>
